<svg width="164" height="32" viewBox="0 0 164 32" fill="none" xmlns="http://www.w3.org/2000/svg">
<path d="M119.201 25.8051H116.705C116.52 25.8089 116.336 25.7754 116.165 25.7067C115.993 25.6379 115.837 25.5354 115.706 25.4051C115.575 25.2749 115.471 25.1195 115.402 24.9484C115.332 24.7773 115.297 24.5938 115.299 24.409H115.253C114.597 25.6849 112.97 26.2582 111.444 26.2582C107.311 26.2582 104.889 23.0036 104.889 19.2683C104.889 14.9875 107.968 12.297 111.444 12.297C112.184 12.2521 112.924 12.3987 113.591 12.7225C114.258 13.0464 114.831 13.5367 115.253 14.1461H115.299C115.296 13.9626 115.329 13.7801 115.397 13.6096C115.465 13.4392 115.567 13.2842 115.697 13.1539C115.826 13.0236 115.98 12.9207 116.15 12.8513C116.321 12.782 116.503 12.7475 116.686 12.75H119.201V25.8051ZM112.036 22.5876C112.472 22.5942 112.906 22.5118 113.31 22.3454C113.714 22.179 114.079 21.9322 114.385 21.6199C114.69 21.3076 114.929 20.9365 115.086 20.529C115.243 20.1215 115.316 19.6863 115.299 19.2498C115.345 18.7955 115.294 18.3368 115.15 17.9034C115.007 17.4701 114.773 17.0718 114.466 16.7344C114.158 16.397 113.783 16.1282 113.365 15.9453C112.946 15.7624 112.494 15.6696 112.038 15.6728C111.581 15.6761 111.13 15.7754 110.715 15.9642C110.299 16.1531 109.928 16.4273 109.625 16.769C109.322 17.1107 109.095 17.5123 108.957 17.9477C108.82 18.383 108.776 18.8425 108.827 19.2961C108.817 20.1561 109.148 20.985 109.748 21.6018C110.347 22.2186 111.167 22.573 112.026 22.5876H112.036Z" fill="#51AF33"/>
<path d="M123.627 8.38674H124.819V13.7771C125.315 13.2823 125.908 12.8955 126.56 12.6409C127.213 12.3863 127.911 12.2695 128.61 12.2977C131.338 12.2977 135.027 14.2486 135.027 19.1859C135.027 23.8827 131.763 26.2404 128.444 26.2404C127.722 26.2645 127.006 26.108 126.36 25.785C125.714 25.4621 125.159 24.983 124.745 24.3913V25.7874H120.844V11.0958C120.861 10.3698 121.162 9.67941 121.682 9.1729C122.202 8.66638 122.901 8.38412 123.627 8.38674ZM127.834 22.5976C128.686 22.5631 129.493 22.2027 130.087 21.5907C130.681 20.9787 131.018 20.1619 131.027 19.3088C131.037 18.4558 130.719 17.6317 130.138 17.0066C129.557 16.3815 128.759 16.0032 127.908 15.9498C127.476 15.9447 127.048 16.0267 126.649 16.1909C126.25 16.3551 125.888 16.5981 125.585 16.9054C125.282 17.2127 125.044 17.578 124.886 17.9793C124.727 18.3807 124.651 18.8099 124.662 19.2413C124.638 19.6723 124.703 20.1037 124.851 20.509C125 20.9142 125.23 21.2849 125.527 21.5982C125.824 21.9116 126.181 22.161 126.578 22.3313C126.975 22.5015 127.402 22.589 127.834 22.5883V22.5976Z" fill="#51AF33"/>
<path d="M138.77 8.38672H139.926V13.777C140.422 13.2828 141.014 12.8962 141.667 12.6417C142.319 12.3871 143.017 12.27 143.716 12.2977C146.444 12.2977 150.133 14.2486 150.133 19.1858C150.133 23.8827 146.869 26.2404 143.55 26.2404C142.828 26.2645 142.112 26.1079 141.466 25.785C140.82 25.4621 140.265 24.983 139.852 24.3912V25.7874H136.033V11.0957C136.05 10.3777 136.344 9.69419 136.855 9.18893C137.365 8.68367 138.052 8.3961 138.77 8.38672ZM142.968 22.5976C143.82 22.5631 144.627 22.2027 145.221 21.5907C145.815 20.9787 146.152 20.1618 146.161 19.3088C146.171 18.4558 145.853 17.6316 145.272 17.0066C144.691 16.3815 143.893 16.0032 143.042 15.9498C142.61 15.9447 142.182 16.0267 141.783 16.1909C141.384 16.3551 141.022 16.5981 140.719 16.9054C140.416 17.2127 140.178 17.5779 140.019 17.9793C139.861 18.3807 139.785 18.8099 139.796 19.2413C139.772 19.6723 139.837 20.1037 139.985 20.5089C140.134 20.9142 140.364 21.2849 140.661 21.5982C140.958 21.9116 141.315 22.161 141.712 22.3313C142.109 22.5015 142.536 22.589 142.968 22.5883V22.5976Z" fill="#51AF33"/>
<path d="M155.064 25.8045H151.245V15.4769C151.234 15.1166 151.296 14.7578 151.426 14.4217C151.556 14.0856 151.752 13.7791 152.003 13.5204C152.254 13.2616 152.555 13.056 152.887 12.9156C153.219 12.7752 153.576 12.703 153.936 12.7031H155.055L155.064 25.8045Z" fill="#51AF33"/>
<path d="M153.159 12.0007C154.287 12.0007 155.202 11.0859 155.202 9.95739C155.202 8.82889 154.287 7.91406 153.159 7.91406C152.03 7.91406 151.115 8.82889 151.115 9.95739C151.115 11.0859 152.03 12.0007 153.159 12.0007Z" fill="#51AF33"/>
<path d="M103.091 21.8647C102.426 21.8243 101.804 21.5217 101.362 21.0233L100.743 20.2281L100.428 19.8583C101.689 19.6263 102.823 18.9425 103.616 17.9349C104.409 16.9273 104.808 15.6651 104.737 14.3848C104.761 13.4857 104.584 12.5926 104.22 11.7705C103.855 10.9484 103.312 10.2179 102.629 9.63243C101.501 8.76332 100.317 8.375 97.2662 8.375H91.7188V25.8034H95.9903V20.5887L97.6453 22.669L98.3018 23.4919C98.8908 24.1944 99.6224 24.7638 100.448 25.1623C101.274 25.5608 102.175 25.7793 103.091 25.8034H104.82V21.8647H103.091ZM97.5436 17.1585H96.0181V12.323H97.5899C99.3003 12.323 100.456 13.0904 100.456 14.6714C100.484 15.5128 100.179 17.1585 97.5714 17.1585H97.5436Z" fill="#51AF33"/>
<path d="M162.524 21.8671C162.111 21.8518 161.706 21.7444 161.34 21.5528C161.053 21.3968 160.821 21.1559 160.675 20.8631C160.529 20.5702 160.478 20.2396 160.527 19.9163V18.4277V15.7187H163.069V12.6675H160.527V8.38672H159.371C158.635 8.38672 157.93 8.67895 157.41 9.19913C156.889 9.71931 156.597 10.4248 156.597 11.1605V19.9532C156.579 20.7347 156.721 21.5116 157.013 22.2367C157.305 22.9618 157.741 23.6199 158.296 24.1709C158.85 24.7219 159.511 25.1543 160.238 25.4417C160.965 25.7291 161.742 25.8656 162.524 25.8428H163.088V21.8671H162.524Z" fill="#51AF33"/>
<path d="M44.7964 12.3238H40.8484V11.0941C40.8321 10.7341 40.8893 10.3746 41.0165 10.0374C41.1436 9.70018 41.3382 9.39243 41.5882 9.13288C41.8382 8.87334 42.1385 8.66745 42.4707 8.52776C42.8029 8.38807 43.1601 8.31752 43.5205 8.3204H53.0622V12.2591H49.2436V25.8043H47.5794C46.8437 25.8043 46.1382 25.512 45.6181 24.9918C45.0979 24.4717 44.8056 23.7661 44.8056 23.0305L44.7964 12.3238Z" fill="#254F17"/>
<path d="M65.017 25.8051H62.5206C62.3358 25.8089 62.1521 25.7754 61.9805 25.7067C61.809 25.6379 61.653 25.5354 61.5218 25.4051C61.3907 25.2749 61.2871 25.1195 61.2173 24.9484C61.1474 24.7773 61.1127 24.5938 61.1152 24.409H61.0228C60.3663 25.6849 58.7391 26.2582 57.2135 26.2582C53.0806 26.2582 50.6582 23.0036 50.6582 19.2683C50.6582 14.9875 53.7371 12.297 57.2135 12.297C57.9538 12.2521 58.6932 12.3987 59.3604 12.7225C60.0276 13.0464 60.6001 13.5367 61.0228 14.1461H61.069C61.0653 13.9626 61.0985 13.7801 61.1668 13.6096C61.235 13.4392 61.3369 13.2842 61.4663 13.1539C61.5957 13.0236 61.75 12.9207 61.92 12.8513C62.09 12.782 62.2723 12.7475 62.4559 12.75H64.9707L65.017 25.8051ZM57.8515 22.5876C58.2882 22.5942 58.7217 22.5118 59.1255 22.3454C59.5293 22.179 59.8951 21.9322 60.2004 21.6199C60.5058 21.3076 60.7444 20.9365 60.9017 20.529C61.0589 20.1215 61.1316 19.6863 61.1152 19.2498C61.1605 18.7955 61.1096 18.3368 60.966 17.9034C60.8224 17.4701 60.5892 17.0718 60.2816 16.7344C59.9739 16.397 59.5988 16.1282 59.1804 15.9453C58.7621 15.7624 58.31 15.6696 57.8535 15.6728C57.3969 15.6761 56.9462 15.7754 56.5305 15.9642C56.1149 16.1531 55.7436 16.4273 55.4408 16.769C55.138 17.1107 54.9106 17.5123 54.7731 17.9477C54.6357 18.383 54.5914 18.8425 54.6432 19.2961C54.6333 20.1577 54.9655 20.988 55.5669 21.605C56.1683 22.2221 56.9899 22.5754 57.8515 22.5876Z" fill="#254F17"/>
<path d="M72.4089 16.3938C72.4089 16.1349 72.3349 15.4138 71.1885 15.4138C70.3656 15.4138 70.0882 15.9315 70.0882 16.2829C70.0882 16.9855 71.0128 17.3924 72.0853 17.6975C74.2951 18.3077 76.6435 18.9642 76.6435 21.7841C76.6435 24.6041 74.2211 26.2036 71.3364 26.2036C69.3578 26.2036 66.3806 25.2791 66.0293 21.8581H69.9033C69.9149 22.038 69.9624 22.2138 70.0431 22.3751C70.1238 22.5364 70.2359 22.6799 70.373 22.7971C70.51 22.9143 70.6691 23.0029 70.8409 23.0576C71.0128 23.1122 71.1938 23.132 71.3734 23.1155C72.0298 23.1155 72.7325 22.7549 72.7325 22.117C72.7325 21.1092 71.8079 20.9982 69.2746 20.0274C67.5826 19.4912 66.1772 18.3817 66.168 16.625C66.168 14.0361 68.5164 12.3164 71.2254 12.3164C72.9452 12.3164 75.9038 12.9914 76.2274 16.4216L72.4089 16.3938Z" fill="#254F17"/>
<path d="M77.6113 22.319V25.8047H81.55V22.3745V19.6008C81.55 19.6008 82.0956 20.4051 83.6211 22.7351C85.6275 25.8139 89.6032 25.8324 89.7696 25.8324H90.6942V22.3745H89.7696C89.7696 22.3745 87.4211 22.3745 86.4226 20.812L85.0635 18.7686L84.9063 18.4913L89.8158 12.7403H85.1929L81.5778 17.4465H81.5316V11.0946C81.5395 10.7311 81.4727 10.3699 81.3353 10.0333C81.1979 9.69676 80.9928 9.39202 80.7327 9.138C80.4726 8.88399 80.1631 8.68613 79.8234 8.55669C79.4837 8.42726 79.121 8.36901 78.7578 8.38557H77.6113V22.319Z" fill="#254F17"/>
<path d="M35.5063 14.5536C33.6572 11.484 32.3073 11.1049 31.1423 10.7628C30.153 10.4762 29.2931 10.2265 27.6474 7.46203C26.469 5.47785 24.9693 3.70316 23.2094 2.21041C21.0089 0.379732 19.4186 0.000653305 18.494 0.000653305C17.8905 -0.0122305 17.2984 0.165734 16.802 0.509174L16.0531 1.04543C15.831 0.976853 15.6011 0.936471 15.3689 0.925236C14.9957 0.913362 14.6298 1.03096 14.3334 1.25809C14.1505 1.41507 14.0117 1.61701 13.9306 1.844C13.8496 2.07098 13.829 2.31517 13.8711 2.5525C14.0491 3.36047 14.4532 4.10118 15.0361 4.68829C15.295 4.9934 15.5908 5.32625 15.9607 5.66834C13.5956 5.23836 11.1582 5.45944 8.90907 6.30794C6.65998 7.15644 4.68388 8.60043 3.19218 10.4854H2.90556C2.41274 10.4792 1.92664 10.6001 1.49421 10.8366C1.06177 11.0731 0.697623 11.417 0.436924 11.8353C0.217262 12.1788 0.0760354 12.5665 0.0232986 12.9709C-0.0294382 13.3752 0.00761211 13.7861 0.131811 14.1745C0.261358 14.5946 0.47883 14.9822 0.769773 15.3117C-0.0741827 18.4404 0.258556 21.7699 1.70497 24.6697C3.15138 27.5695 5.61101 29.8381 8.61801 31.046C11.625 32.2538 14.9705 32.3169 18.0209 31.2233C21.0713 30.1298 23.6148 27.9555 25.1695 25.1123C25.3943 25.1254 25.6197 25.1254 25.8445 25.1123C26.4035 25.1301 26.9585 25.0127 27.4625 24.7702C27.7402 24.6366 27.9789 24.4337 28.1554 24.1811C28.3319 23.9285 28.4403 23.6346 28.4703 23.3279C28.4965 23.0138 28.4374 22.6984 28.299 22.4152C28.1607 22.132 27.9483 21.8914 27.6844 21.7191C27.3389 21.4962 26.9659 21.319 26.5749 21.1921C26.6303 20.8962 26.6766 20.588 26.7136 20.2675C27.6347 20.5701 28.6013 20.7109 29.5705 20.6836C29.9866 20.6836 30.4304 20.6836 31.0129 20.6281C34.1842 20.4339 35.4416 19.2597 35.9409 18.3166C36.3477 17.6232 36.5973 16.3288 35.5063 14.5536Z" fill="#51AF33"/>
<path d="M34.7109 15.0783C31.4378 9.64176 30.3098 13.562 26.8149 7.95902C24.0412 3.42856 19.7419 0.201769 17.6615 1.14484C17.6354 1.15491 17.6129 1.17266 17.597 1.19577C17.5811 1.21888 17.5726 1.24625 17.5726 1.27428C17.5726 1.30232 17.5811 1.32969 17.597 1.3528C17.6129 1.37591 17.6354 1.39366 17.6615 1.40373C19.7234 2.2451 24.1336 5.92493 26.066 9.63251C26.0721 9.64223 26.0762 9.65304 26.0781 9.66434C26.08 9.67563 26.0796 9.68719 26.077 9.69835C26.0745 9.70951 26.0697 9.72006 26.0631 9.72939C26.0564 9.73871 26.048 9.74664 26.0383 9.75271C26.0286 9.75878 26.0177 9.76288 26.0064 9.76477C25.9951 9.76666 25.9836 9.76631 25.9724 9.76373C25.9613 9.76116 25.9507 9.75641 25.9414 9.74976C25.9321 9.7431 25.9241 9.73468 25.9181 9.72497C23.5511 6.72932 16.2377 1.05238 14.9803 2.05093C13.9447 2.87381 19.446 8.0977 23.9302 10.3722C23.9548 10.384 23.9768 10.4006 23.9948 10.4211C24.0129 10.4415 24.0266 10.4654 24.0352 10.4913C24.0439 10.5171 24.0472 10.5445 24.045 10.5717C24.0429 10.5989 24.0353 10.6254 24.0227 10.6496C23.8193 11.0194 23.32 11.5741 21.9516 11.5279C19.5847 11.5279 17.3287 8.03298 12.2065 7.96826C10.6523 7.94781 9.1125 8.26836 7.69557 8.90733C6.27864 9.54631 5.01903 10.4882 4.00546 11.6666C3.98724 11.6816 3.96436 11.6898 3.94074 11.6898C3.91712 11.6898 3.89424 11.6816 3.87602 11.6666C3.43896 11.4359 2.93164 11.3763 2.45301 11.4993C1.97437 11.6224 1.55874 11.9194 1.28719 12.3323C1.02292 12.7563 0.934009 13.2664 1.03928 13.7548C1.14454 14.2432 1.43573 14.6714 1.85118 14.9489C1.88958 14.9719 1.91883 15.0075 1.93399 15.0496C1.94916 15.0917 1.9493 15.1378 1.9344 15.18C1.56081 16.3458 1.3675 17.5617 1.36115 18.7859C1.38308 21.6005 2.51532 24.2926 4.51164 26.2768C6.50797 28.261 9.20693 29.3768 12.0216 29.3816C14.0414 29.4108 16.0241 28.8379 17.717 27.7358C19.3535 26.7465 20.5555 25.4429 20.2411 24.4998C19.7881 23.1314 17.8095 23.5752 15.8031 24.3611C15.776 24.3686 15.7472 24.367 15.721 24.3566C15.6949 24.3463 15.6728 24.3277 15.6582 24.3036C15.6435 24.2796 15.6371 24.2514 15.6399 24.2234C15.6427 24.1954 15.6546 24.1691 15.6737 24.1485C16.51 23.279 17.0721 22.1826 17.2899 20.996C17.5077 19.8093 17.3715 18.5849 16.8984 17.475C16.4253 16.3652 15.6362 15.4191 14.6292 14.7546C13.6223 14.09 12.4421 13.7363 11.2357 13.7377C10.0101 13.6655 8.79335 13.9849 7.76124 14.6497C6.72913 15.3145 5.93514 16.2903 5.49404 17.436C5.48423 17.474 5.45972 17.5066 5.42591 17.5265C5.3921 17.5464 5.35175 17.5521 5.31375 17.5423C5.27574 17.5325 5.24318 17.508 5.22324 17.4742C5.2033 17.4404 5.19761 17.4 5.20742 17.362C5.5193 15.9342 6.29366 14.6492 7.41037 13.7063C8.52707 12.7635 9.92371 12.2155 11.3836 12.1474C12.6046 12.0731 13.8226 12.3353 14.9048 12.9054C15.9871 13.4755 16.8922 14.3316 17.5215 15.3805C18.1509 16.4294 18.4804 17.6309 18.4741 18.8541C18.4678 20.0774 18.126 21.2754 17.4859 22.3178C17.4607 22.3542 17.4487 22.3982 17.4519 22.4424C17.4551 22.4866 17.4734 22.5283 17.5036 22.5607C17.5338 22.5931 17.5742 22.6142 17.6181 22.6205C17.662 22.6267 17.7067 22.6178 17.7448 22.5952C18.4797 22.1863 19.132 21.6438 19.6679 20.9956C19.6766 20.9858 19.6872 20.9779 19.6992 20.9725C19.7111 20.9671 19.7241 20.9643 19.7372 20.9643C19.7504 20.9643 19.7633 20.9671 19.7753 20.9725C19.7872 20.9779 19.7979 20.9858 19.8066 20.9956C23.1351 24.6385 27.3974 24.694 27.5084 23.2886C27.6378 21.6798 23.5234 22.7246 23.2645 18.7304C23.2645 18.7132 23.2693 18.6964 23.2783 18.6818C23.2874 18.6672 23.3003 18.6554 23.3156 18.6477C23.331 18.64 23.3482 18.6368 23.3653 18.6383C23.3824 18.6399 23.3987 18.6461 23.4125 18.6564C23.5332 18.7555 23.6785 18.8202 23.8329 18.8437C23.9873 18.8671 24.1452 18.8486 24.29 18.7899C24.4348 18.7312 24.561 18.6347 24.6556 18.5103C24.7501 18.3859 24.8093 18.2384 24.8271 18.0832C24.83 18.0676 24.8369 18.053 24.8472 18.0409C24.8574 18.0287 24.8706 18.0194 24.8854 18.0139C24.9003 18.0083 24.9163 18.0066 24.932 18.0091C24.9477 18.0115 24.9625 18.0179 24.975 18.0277C26.7502 19.7567 28.5531 19.8769 31.0125 19.692C34.5259 19.4978 36.1624 17.5654 34.7109 15.0783ZM31.521 15.0783C31.2857 15.067 31.0604 14.9798 30.8788 14.8298C30.6971 14.6799 30.5689 14.4751 30.5132 14.2462C30.4874 14.1391 30.4868 14.0275 30.5114 13.9201C30.536 13.8127 30.5852 13.7125 30.6551 13.6274C30.725 13.5423 30.8137 13.4745 30.9142 13.4295C31.0147 13.3844 31.1244 13.3633 31.2344 13.3678C31.4793 13.3777 31.7137 13.4697 31.8999 13.6291C32.086 13.7884 32.2131 14.0058 32.2607 14.2462C32.2874 14.3557 32.2878 14.4699 32.2617 14.5795C32.2356 14.6892 32.1839 14.7911 32.1108 14.8768C32.0377 14.9626 31.9453 15.0297 31.8411 15.0728C31.737 15.1159 31.6241 15.1336 31.5118 15.1245L31.521 15.0783Z" fill="white"/>
</svg>
