<svg width="492" height="242" viewBox="0 0 492 242" fill="none" xmlns="http://www.w3.org/2000/svg">
<path fill-rule="evenodd" clip-rule="evenodd" d="M299.717 119.403C312.491 116.251 325 108.782 325 88.6545C325 71.0992 319.734 61.4437 312.711 61.4437C319.734 61.4437 325 50.9105 325 33.3552C325 23.6997 320.611 0 281.112 0H240.223L220.034 20.1886H243.002L255.474 7.71685L255.914 7.27751H256.535H270.579H283.746C288.778 7.27751 296.738 8.63713 303.493 12.6443C310.318 16.6933 315.967 23.4987 315.967 34.2328C315.967 46.0379 311.847 53.1561 305.512 57.2201C302.64 59.0627 299.369 60.2382 295.938 60.9691C299.424 62.0941 302.717 63.7162 305.591 65.8312C311.739 70.355 315.967 77.1447 315.967 86.021C315.967 93.7339 313.923 100.765 308.713 105.856C305.087 109.4 300.047 111.887 293.386 113.071L299.717 119.403ZM240.759 60.4443L231.225 50.9105H275.309L265.775 60.4443H240.759ZM251.414 71.0992L242.759 62.4443H266.189H266.604L266.897 62.1514L278.137 50.9105H284.623C297.789 50.9105 303.056 43.0106 303.056 35.1107C303.056 26.333 299.545 20.1886 284.623 20.1886H247.245L257.156 10.2775H270.579H283.746C288.369 10.2775 295.77 11.5512 301.962 15.2245C308.084 18.8559 312.967 24.7782 312.967 34.2328C312.967 45.2496 309.188 51.2979 303.892 54.695C298.459 58.1803 291.152 59.0658 283.746 59.0658V62.0658C290.937 62.0658 298.294 64.186 303.813 68.2475C309.296 72.2819 312.967 78.2198 312.967 86.021C312.967 93.2302 311.062 99.3657 306.616 103.711C303.174 107.074 298.063 109.508 290.753 110.438L282.136 101.821H284.623C296.034 101.821 303.056 93.0433 303.056 86.0212C303.056 78.9991 299.545 71.0992 284.623 71.0992H251.414ZM200.503 20.1886L190.592 10.2775H204.747H205.368L205.807 9.83817L215.645 0H235.98L215.792 20.1886H200.503ZM179.036 21.3485L187.347 29.6595V55.6557L167 76.0024V50.4009L178.596 38.8045L179.036 38.3652V37.7438V21.3485ZM187.592 7.27751H204.125L211.403 0H187.347H180.315L187.592 7.27751ZM167.002 0H167V0.00159359L167.002 0ZM167 9.31275L176.036 18.3485V37.1225L167 46.1583V9.31275ZM259.422 101.735L279.769 122.081C278.476 122.118 276.793 122.106 275.356 122.082H260.484L240.137 101.735H259.422ZM167 80.245V122.08V122.082H229.908L221.681 113.854H177.536H176.036V112.354V98.3098V97.6885L176.475 97.2491L187.347 86.3775V59.8983L167 80.245ZM187.347 90.6202L179.036 98.9311V110.854H222.302H222.923L223.363 111.293L234.151 122.082H256.241L235.894 101.735H187.347V90.6202Z" fill="#F71B3A"/>
<path d="M492 147H225V227H492V147Z" fill="#F71B3A"/>
<path d="M0 159.305H13.09V204.95H30.685V216H0V159.305ZM69.6794 158.03C78.6327 158.03 85.9427 160.778 91.6094 166.275C97.503 171.998 100.449 179.138 100.449 187.695C100.449 196.138 97.503 203.222 91.6094 208.945C85.8861 214.498 78.5761 217.275 69.6794 217.275C60.7261 217.275 53.3594 214.498 47.5794 208.945C44.8027 206.338 42.6211 203.222 41.0344 199.595C39.5044 195.912 38.7394 192.002 38.7394 187.865C38.7394 183.898 39.5327 179.988 41.1194 176.135C42.7627 172.225 44.8877 168.967 47.4944 166.36C53.0477 160.807 60.4427 158.03 69.6794 158.03ZM69.5944 170.1C64.5511 170.1 60.4144 171.715 57.1844 174.945C53.8411 178.175 52.1694 182.453 52.1694 187.78C52.1694 192.88 53.8977 197.13 57.3544 200.53C60.6411 203.647 64.6927 205.205 69.5094 205.205C74.6661 205.205 78.8594 203.59 82.0894 200.36C85.3761 197.187 87.0194 192.965 87.0194 187.695C87.0194 182.482 85.3761 178.232 82.0894 174.945C78.7461 171.715 74.5811 170.1 69.5944 170.1ZM156.258 199.17V214.215C152.235 216.255 148.07 217.275 143.763 217.275C134.526 217.275 127.103 214.527 121.493 209.03C115.6 203.307 112.653 196.138 112.653 187.525C112.653 179.025 115.6 171.913 121.493 166.19C127.103 160.75 134.158 158.03 142.658 158.03C146.851 158.03 151.385 159.078 156.258 161.175V176.305C152.461 172.282 148.041 170.27 142.998 170.27C138.351 170.27 134.498 171.743 131.438 174.69C127.868 178.147 126.083 182.51 126.083 187.78C126.083 192.937 127.726 197.102 131.013 200.275C134.186 203.448 138.266 205.035 143.253 205.035C147.956 205.035 152.291 203.08 156.258 199.17ZM184.943 159.305V182.935L204.323 159.305H220.303L197.353 186.165L222.088 216H205.258L184.943 190.84V216H171.853V159.305H184.943Z" fill="#222222"/>
<path d="M233.896 159.305H251.236C257.809 159.305 262.626 160.75 265.686 163.64C268.406 166.247 269.766 169.817 269.766 174.35C269.766 177.183 269.143 179.592 267.896 181.575C266.763 183.445 265.176 184.833 263.136 185.74C266.309 186.25 268.916 187.525 270.956 189.565C273.393 192.002 274.611 195.373 274.611 199.68C274.611 204.383 273.138 208.208 270.191 211.155C266.848 214.385 261.861 216 255.231 216H233.896V159.305ZM246.816 169.505V182.34H248.941C251.888 182.34 254.098 181.802 255.571 180.725C257.101 179.648 257.866 177.977 257.866 175.71C257.866 173.67 257.129 172.083 255.656 170.95C254.409 169.987 252.143 169.505 248.856 169.505H246.816ZM246.816 192.03V205.8H249.961C254.778 205.8 258.008 205.035 259.651 203.505C260.898 202.372 261.521 200.785 261.521 198.745C261.521 196.762 260.926 195.232 259.736 194.155C258.206 192.738 255.089 192.03 250.386 192.03H246.816ZM289.72 159.305H302.81V216H289.72V159.305ZM352.761 170.355H340.436V216H327.346V170.355H315.021V159.305H352.761V170.355Z" fill="white"/>
<path d="M371.548 216L388.404 196.822C393.908 190.401 397.176 186.416 398.208 184.868C400.444 181.543 401.562 178.475 401.562 175.666C401.562 173.086 400.731 170.993 399.068 169.388C397.463 167.783 395.456 166.98 393.048 166.98C390.296 166.98 388.117 167.926 386.512 169.818C384.907 171.653 384.047 173.889 383.932 176.526H372.408C372.637 170.735 374.615 166.091 378.342 162.594C382.069 159.097 386.799 157.348 392.532 157.348C398.839 157.348 403.769 159.154 407.324 162.766C410.936 166.378 412.742 170.649 412.742 175.58C412.742 178.332 412.111 181.084 410.85 183.836C409.589 186.588 408.385 188.681 407.238 190.114C406.091 191.49 404.457 193.325 402.336 195.618L392.446 206.368H413.172V216H371.548ZM420.169 215.226C418.908 213.907 418.277 212.302 418.277 210.41C418.277 208.518 418.908 206.941 420.169 205.68C421.488 204.361 423.093 203.702 424.985 203.702C426.877 203.702 428.454 204.361 429.715 205.68C431.034 206.941 431.693 208.518 431.693 210.41C431.693 212.302 431.034 213.907 429.715 215.226C428.454 216.487 426.877 217.118 424.985 217.118C423.093 217.118 421.488 216.487 420.169 215.226ZM471.163 209.378C466.863 214.653 461.646 217.29 455.511 217.29C449.376 217.29 444.13 214.653 439.773 209.378C435.473 204.046 433.323 196.679 433.323 187.276C433.323 177.931 435.473 170.621 439.773 165.346C444.13 160.014 449.376 157.348 455.511 157.348C461.646 157.348 466.863 160.014 471.163 165.346C475.52 170.621 477.699 177.959 477.699 187.362C477.699 196.707 475.52 204.046 471.163 209.378ZM463.079 172.054C460.843 168.671 458.32 166.98 455.511 166.98C452.702 166.98 450.15 168.671 447.857 172.054C445.621 175.379 444.503 180.453 444.503 187.276C444.503 194.099 445.621 199.201 447.857 202.584C450.093 205.967 452.644 207.658 455.511 207.658C458.378 207.658 460.929 205.967 463.165 202.584C465.401 199.201 466.519 194.099 466.519 187.276C466.519 180.453 465.372 175.379 463.079 172.054Z" fill="white"/>
</svg>
